<svg width="286" height="74" viewBox="0 0 286 74" fill="none" xmlns="http://www.w3.org/2000/svg">
<path d="M125.6 43.3C125.8 43.2 126 43 126.1 42.7C126 42.4 125.9 42.2 125.6 42C125.4 41.9 124.9 41.8 124.3 41.8H112.6C106.3 41.8 103.2 39.5 103.2 34.9V33.2C103.2 28.6 106.3 26.4 112.6 26.4H136.3V33.2H115.2C114.6 33.2 114.2 33.3 113.9 33.4C113.6 33.5 113.5 33.7 113.4 34.1C113.5 34.4 113.6 34.6 113.9 34.8C114.2 35 114.6 35 115.2 35H126.9C133.2 35 136.3 37.3 136.3 41.9V43.6C136.3 48.2 133.2 50.4 126.9 50.4H103.2V43.5H124.3C124.9 43.5 125.4 43.4 125.6 43.3Z" fill="#1C1C1C"/>
<path d="M161.7 26.4H171.9V50.3H148.2C141.9 50.3 138.8 48 138.8 43.4V26.3H149V41.7C149 42.8 149.9 43.4 151.6 43.4H161.6V26.4H161.7Z" fill="#1C1C1C"/>
<path d="M183.9 50.3C177.6 50.3 174.5 48 174.5 43.4V26.3H184.7V41.7C184.7 42.8 185.6 43.4 187.3 43.4H203.5V50.3H183.9Z" fill="#1C1C1C"/>
<path d="M206 50.3V26.4H216.2V50.3H206Z" fill="#1C1C1C"/>
<path d="M218.8 50.3V26.4H229V34.9H232.7L240.5 26.4H251.9L241.1 38.4L251.9 50.4H240.5L232.7 41.8H229.1V50.4H218.8V50.3Z" fill="#1C1C1C"/>
<path d="M285.5 43.5C285.5 48.1 282.4 50.4 276.1 50.4H261.7C255.4 50.4 252.3 48.1 252.3 43.5V33.3C252.3 28.7 255.4 26.5 261.7 26.5H276.1C282.4 26.5 285.5 28.8 285.5 33.3V43.5ZM262.5 41.8C262.5 42.9 263.4 43.5 265.1 43.5H272.7C274.4 43.5 275.3 42.9 275.3 41.8V35C275.3 33.9 274.4 33.3 272.7 33.3H265.1C263.4 33.3 262.5 33.9 262.5 35V41.8Z" fill="#1C1C1C"/>
<path d="M74.2 7.10001L74.1 7L66.7 3.5L54.2 3L50.2 0.800003L42.1 3.3L33 1.8L20.5 4.89999L12.7 16.8L2.5 23.3L0.5 46.5L9 54.3L10.9 61.5L20.4 66.6H28.3L31.8 73.3L41.5 71L48.1 59.5L50.8 60.1L56.2 61.8L71.8 55.8L75.1 48L88.7 45L90.9 24.4L74.2 7.10001ZM70.1 33.9L69.4 33.6L66.9 26.6L69.1 25.1L81.9 26.5L83.6 29L78.9 33.1L70.1 33.9ZM70.9 44.7C64.4 42.6 58 40.6 51.5 38.5C51.6 37.9 51.8 37.3 51.9 36.6C57.2 36.5 62.5 36.4 67.8 36.3L70.9 44.7ZM83 20.5C81.9 22.2 81.3 23 81.1 23.5L69.2 22.2L68 18.8L73.7 10.8L83 20.5ZM54.9 6.7L55.2 6L65.9 6.39999L71.4 9L63.5 20.1L53.2 11.7L54.9 6.7ZM53.2 15.5L62.5 23.1L62.7 23.4L66.3 33.5L52.6 33.9L46.8 33.5L46.7 31.9L52.8 27.1L53.2 15.5ZM33.1 4.8L41 6.10001L50.3 13.6L50 20.1L46.7 21.3L45.2 20.3L29.3 10L28.4 6L33.1 4.8ZM46.4 28.3L38.2 34.7L35 44.7L30.3 42.4L29.5 27.1L31.3 24.3L45.3 25.3L46.4 28.3ZM27.4 12.2L40.2 20.5L40.1 22.1L29.4 21.4L27.4 20.1L25.8 14L27.4 12.2ZM27.3 42L11.1 42.8L10 40.7L24.1 27.9L26.6 28.9L27.3 42ZM7 39.4L4.2 38.7L5.4 25L14.8 19L19.7 11.6L22.5 12.4L25.3 22.9L7 39.4ZM7 48.4L10.7 45.8L24.9 45.1L19.9 53.2L11.4 52.4L7 48.4ZM21.2 63.6L13.5 59.4L12.5 55.4L20.4 56.1L26.9 63.5H21.2V63.6ZM22.6 54.4L28.3 45H28.5L34.3 47.8L28.4 60.9L22.6 54.4ZM39.7 68.3L33.5 69.8L30.3 63.8L36.4 50.4L45.7 57.8L39.7 68.3ZM47.3 55.5L37.4 47.6L37.5 46.5L39.1 41.6L42 41.3L49.9 53.4L47.3 55.5ZM69.6 53.5L56.8 58.4L56.1 57.4L44.9 40.4L45.8 39.7L71.3 48L69.6 53.5ZM86 42.6L74.2 45.2L71.1 36.8L80.3 36L84.4 32.4L87.1 33.2L86 42.6Z" fill="#0040FF"/>
</svg>
