<?xml version="1.0" encoding="utf-8"?>
<!-- Generator: Adobe Illustrator 27.1.1, SVG Export Plug-In . SVG Version: 6.00 Build 0)  -->
<svg version="1.1" id="Layer_1" xmlns="http://www.w3.org/2000/svg" xmlns:xlink="http://www.w3.org/1999/xlink" x="0px" y="0px"
	 viewBox="0 0 500 500" style="enable-background:new 0 0 500 500;" xml:space="preserve">
<style type="text/css">
	.st0{display:none;}
	.st1{fill:#1C1C1C;}
	.st2{fill:#0040FF;}
	.st3{fill:#0040FF;stroke:#0040FF;stroke-miterlimit:10;}
</style>
<rect class="st0" width="500" height="500"/>
<g>
	<g>
		<path class="st1" d="M232.6,256.3c0.2-0.1,0.4-0.3,0.5-0.6c-0.1-0.3-0.2-0.5-0.5-0.7c-0.2-0.1-0.7-0.2-1.3-0.2h-11.7
			c-6.3,0-9.4-2.3-9.4-6.9v-1.7c0-4.6,3.1-6.8,9.4-6.8h23.7v6.8h-21.1c-0.6,0-1,0.1-1.3,0.2s-0.4,0.3-0.5,0.7
			c0.1,0.3,0.2,0.5,0.5,0.7s0.7,0.2,1.3,0.2h11.7c6.3,0,9.4,2.3,9.4,6.9v1.7c0,4.6-3.1,6.8-9.4,6.8h-23.7v-6.9h21.1
			C231.9,256.5,232.4,256.4,232.6,256.3z"/>
		<path class="st1" d="M268.7,239.4h10.2v23.9h-23.7c-6.3,0-9.4-2.3-9.4-6.9v-17.1h10.2v15.4c0,1.1,0.9,1.7,2.6,1.7h10V239.4z"/>
		<path class="st1" d="M290.9,263.3c-6.3,0-9.4-2.3-9.4-6.9v-17.1h10.2v15.4c0,1.1,0.9,1.7,2.6,1.7h16.2v6.9H290.9z"/>
		<path class="st1" d="M313,263.3v-23.9h10.2v23.9H313z"/>
		<path class="st1" d="M325.8,263.3v-23.9h10.2v8.5h3.7l7.8-8.5h11.4l-10.8,12l10.8,12h-11.4l-7.8-8.6h-3.6v8.6H325.8z"/>
		<path class="st1" d="M392.5,256.5c0,4.6-3.1,6.9-9.4,6.9h-14.4c-6.3,0-9.4-2.3-9.4-6.9v-10.2c0-4.6,3.1-6.8,9.4-6.8h14.4
			c6.3,0,9.4,2.3,9.4,6.8V256.5z M369.5,254.8c0,1.1,0.9,1.7,2.6,1.7h7.6c1.7,0,2.6-0.6,2.6-1.7V248c0-1.1-0.9-1.7-2.6-1.7h-7.6
			c-1.7,0-2.6,0.6-2.6,1.7V254.8z"/>
	</g>
	<g>
		<g>
			<g>
				<path class="st2" d="M181.2,220.1l-0.1-0.1l-7.4-3.5l-12.5-0.5l-4-2.2l-8.1,2.5l-9.1-1.5l-12.5,3.1l-7.8,11.9l-10.2,6.5l-2,23.2
					l8.5,7.8l1.9,7.2l9.5,5.1h7.9l3.5,6.7l9.7-2.3l6.6-11.5l2.7,0.6l5.4,1.7l15.6-6l3.3-7.8l13.6-3l2.2-20.6L181.2,220.1z
					 M177.1,246.9l-0.7-0.3l-2.5-7l2.2-1.5l12.8,1.4l1.7,2.5l-4.7,4.1L177.1,246.9z M177.9,257.7c-6.5-2.1-12.9-4.1-19.4-6.2
					c0.1-0.6,0.3-1.2,0.4-1.9c5.3-0.1,10.6-0.2,15.9-0.3L177.9,257.7z M190,233.5c-1.1,1.7-1.7,2.5-1.9,3l-11.9-1.3l-1.2-3.4l5.7-8
					L190,233.5z M161.9,219.7l0.3-0.7l10.7,0.4l5.5,2.6l-7.9,11.1l-10.3-8.4L161.9,219.7z M160.2,228.5l9.3,7.6l0.2,0.3l3.6,10.1
					l-13.7,0.4l-5.8-0.4l-0.1-1.6l6.1-4.8L160.2,228.5z M140.1,217.8l7.9,1.3l9.3,7.5l-0.3,6.5l-3.3,1.2l-1.5-1l-15.9-10.3l-0.9-4
					L140.1,217.8z M153.4,241.3l-8.2,6.4l-3.2,10l-4.7-2.3l-0.8-15.3l1.8-2.8l14,1L153.4,241.3z M134.4,225.2l12.8,8.3l-0.1,1.6
					l-10.7-0.7l-2-1.3l-1.6-6.1L134.4,225.2z M134.3,255l-16.2,0.8l-1.1-2.1l14.1-12.8l2.5,1L134.3,255z M114,252.4l-2.8-0.7
					l1.2-13.7l9.4-6l4.9-7.4l2.8,0.8l2.8,10.5L114,252.4L114,252.4z M114,261.4l3.7-2.6l14.2-0.7l-5,8.1l-8.5-0.8L114,261.4z
					 M128.2,276.6l-7.7-4.2l-1-4l7.9,0.7l6.5,7.4H128.2z M129.6,267.4L129.6,267.4l5.7-9.4l0.2,0l5.8,2.8l-5.9,13.1L129.6,267.4z
					 M146.7,281.3l-6.2,1.5l-3.2-6l6.1-13.4l9.3,7.4L146.7,281.3z M154.3,268.5l-9.9-7.9l0.1-1.1l1.6-4.9l2.9-0.3l7.9,12.1
					L154.3,268.5z M176.6,266.5l-12.8,4.9l-0.7-1l-11.2-17l0.9-0.7l25.5,8.3L176.6,266.5z M193,255.6l-11.8,2.6l-3.1-8.4l9.2-0.8
					l4.1-3.6l2.7,0.8L193,255.6z"/>
			</g>
		</g>
		<g>
			<g>
				<path class="st3" d="M199.4,256.1"/>
			</g>
		</g>
	</g>
</g>
</svg>
