<svg width="30" height="30" viewBox="0 0 30 30" fill="none" xmlns="http://www.w3.org/2000/svg">
<g clip-path="url(#clip0_43_24)">
<path d="M29.0625 28.125V6.5625H0.9375V28.125C0.9375 28.6425 1.3575 29.0625 1.875 29.0625H28.125C28.6425 29.0625 29.0625 28.6425 29.0625 28.125Z" fill="#F9EBB2"/>
<path d="M0.9375 1.875V5.625H29.0625V1.875C29.0625 1.3575 28.6425 0.9375 28.125 0.9375H1.875C1.3575 0.9375 0.9375 1.3575 0.9375 1.875Z" fill="#B4CCB9"/>
<path d="M28.125 0H1.875C0.838594 0 0 0.838594 0 1.875V28.125C0 29.1614 0.838594 30 1.875 30H28.125C29.1614 30 30 29.1614 30 28.125V1.875C30 0.838594 29.1614 0 28.125 0ZM29.0625 28.125C29.0625 28.6425 28.6425 29.0625 28.125 29.0625H1.875C1.3575 29.0625 0.9375 28.6425 0.9375 28.125V6.5625H29.0625V28.125ZM29.0625 5.625H0.9375V1.875C0.9375 1.3575 1.3575 0.9375 1.875 0.9375H28.125C28.6425 0.9375 29.0625 1.3575 29.0625 1.875V5.625Z" fill="#394240"/>
<path d="M3.28125 1.875C2.50453 1.875 1.875 2.50453 1.875 3.28125C1.875 4.05797 2.50453 4.6875 3.28125 4.6875C4.05797 4.6875 4.6875 4.05797 4.6875 3.28125C4.6875 2.50453 4.05797 1.875 3.28125 1.875ZM3.28125 3.75C3.02203 3.75 2.8125 3.54047 2.8125 3.28125C2.8125 3.02203 3.02203 2.8125 3.28125 2.8125C3.54047 2.8125 3.75 3.02203 3.75 3.28125C3.75 3.54047 3.54047 3.75 3.28125 3.75Z" fill="#394240"/>
<path d="M15.4688 1.875H7.03125C6.25453 1.875 5.625 2.50453 5.625 3.28125C5.625 4.05797 6.25453 4.6875 7.03125 4.6875H15.4688C16.2455 4.6875 16.875 4.05797 16.875 3.28125C16.875 2.50453 16.2455 1.875 15.4688 1.875ZM15.4688 3.75H7.03125C6.77203 3.75 6.5625 3.54047 6.5625 3.28125C6.5625 3.02203 6.77203 2.8125 7.03125 2.8125H15.4688C15.728 2.8125 15.9375 3.02203 15.9375 3.28125C15.9375 3.54047 15.728 3.75 15.4688 3.75Z" fill="#394240"/>
<path d="M5.15625 11.25H13.5938C13.853 11.25 14.0625 11.0405 14.0625 10.7812C14.0625 10.522 13.853 10.3125 13.5938 10.3125H5.15625C4.89703 10.3125 4.6875 10.522 4.6875 10.7812C4.6875 11.0405 4.89703 11.25 5.15625 11.25Z" fill="#394240"/>
<path d="M5.15625 14.0625H13.5938C13.853 14.0625 14.0625 13.853 14.0625 13.5938C14.0625 13.3345 13.853 13.125 13.5938 13.125H5.15625C4.89703 13.125 4.6875 13.3345 4.6875 13.5938C4.6875 13.853 4.89703 14.0625 5.15625 14.0625Z" fill="#394240"/>
<path d="M5.15625 16.875H13.5938C13.853 16.875 14.0625 16.6655 14.0625 16.4062C14.0625 16.147 13.853 15.9375 13.5938 15.9375H5.15625C4.89703 15.9375 4.6875 16.147 4.6875 16.4062C4.6875 16.6655 4.89703 16.875 5.15625 16.875Z" fill="#394240"/>
<path d="M5.15625 19.6875H13.5938C13.853 19.6875 14.0625 19.478 14.0625 19.2188C14.0625 18.9595 13.853 18.75 13.5938 18.75H5.15625C4.89703 18.75 4.6875 18.9595 4.6875 19.2188C4.6875 19.478 4.89703 19.6875 5.15625 19.6875Z" fill="#394240"/>
<path d="M5.15625 22.5H24.8438C25.103 22.5 25.3125 22.2905 25.3125 22.0312C25.3125 21.772 25.103 21.5625 24.8438 21.5625H5.15625C4.89703 21.5625 4.6875 21.772 4.6875 22.0312C4.6875 22.2905 4.89703 22.5 5.15625 22.5Z" fill="#394240"/>
<path d="M5.15625 25.3125H24.8438C25.103 25.3125 25.3125 25.103 25.3125 24.8438C25.3125 24.5845 25.103 24.375 24.8438 24.375H5.15625C4.89703 24.375 4.6875 24.5845 4.6875 24.8438C4.6875 25.103 4.89703 25.3125 5.15625 25.3125Z" fill="#394240"/>
<path d="M16.4062 19.6875H24.8438C25.103 19.6875 25.3125 19.478 25.3125 19.2188V10.7812C25.3125 10.522 25.103 10.3125 24.8438 10.3125H16.4062C16.147 10.3125 15.9375 10.522 15.9375 10.7812V19.2188C15.9375 19.478 16.147 19.6875 16.4062 19.6875ZM16.875 11.25H24.375V18.75H16.875V11.25Z" fill="#394240"/>
<path d="M24.375 11.25H16.875V18.75H24.375V11.25Z" fill="#F76D57"/>
<path d="M15.4688 2.8125H7.03125C6.77203 2.8125 6.5625 3.02203 6.5625 3.28125C6.5625 3.54047 6.77203 3.75 7.03125 3.75H15.4688C15.728 3.75 15.9375 3.54047 15.9375 3.28125C15.9375 3.02203 15.728 2.8125 15.4688 2.8125Z" fill="#506C7F"/>
<path d="M3.28125 3.75C3.54013 3.75 3.75 3.54013 3.75 3.28125C3.75 3.02237 3.54013 2.8125 3.28125 2.8125C3.02237 2.8125 2.8125 3.02237 2.8125 3.28125C2.8125 3.54013 3.02237 3.75 3.28125 3.75Z" fill="#506C7F"/>
</g>
<defs>
<clipPath id="clip0_43_24">
<rect width="30" height="30" fill="white"/>
</clipPath>
</defs>
</svg>
