<svg width="30" height="30" viewBox="0 0 30 30" fill="none" xmlns="http://www.w3.org/2000/svg">
<g clip-path="url(#clip0_43_68)">
<path d="M0.9375 16.4062V27.1875C0.9375 28.223 1.77703 29.0625 2.8125 29.0625C3.84797 29.0625 4.6875 28.223 4.6875 27.1875V15.4688H1.875C1.3575 15.4688 0.9375 15.8888 0.9375 16.4062Z" fill="#F9EBB2"/>
<path d="M28.125 0.9375H6.56249C6.04499 0.9375 5.62499 1.3575 5.62499 1.875V27.1875C5.62499 27.9089 5.35124 28.5647 4.90453 29.0625H27.1875C28.223 29.0625 29.0625 28.223 29.0625 27.1875V1.875C29.0625 1.3575 28.6425 0.9375 28.125 0.9375Z" fill="#F9EBB2"/>
<path d="M28.125 0H6.5625C5.52609 0 4.6875 0.838594 4.6875 1.875V14.5312H1.875C0.838594 14.5312 0 15.3698 0 16.4062V27.1875C0 28.7405 1.25953 30 2.8125 30H27.1875C28.7405 30 30 28.7405 30 27.1875V1.875C30 0.838594 29.1614 0 28.125 0ZM4.6875 27.1875C4.6875 28.223 3.84797 29.0625 2.8125 29.0625C1.77703 29.0625 0.9375 28.223 0.9375 27.1875V16.4062C0.9375 15.8888 1.3575 15.4688 1.875 15.4688H4.6875V27.1875ZM29.0625 27.1875C29.0625 28.223 28.223 29.0625 27.1875 29.0625H4.90453C5.35125 28.5647 5.625 27.9089 5.625 27.1875V1.875C5.625 1.3575 6.045 0.9375 6.5625 0.9375H28.125C28.6425 0.9375 29.0625 1.3575 29.0625 1.875V27.1875Z" fill="#394240"/>
<path d="M24.8438 11.7188H9.84375C9.58453 11.7188 9.375 11.9283 9.375 12.1875C9.375 12.4467 9.58453 12.6562 9.84375 12.6562H24.8438C25.103 12.6562 25.3125 12.4467 25.3125 12.1875C25.3125 11.9283 25.103 11.7188 24.8438 11.7188Z" fill="#394240"/>
<path d="M24.8438 8.90625H9.84375C9.58453 8.90625 9.375 9.11578 9.375 9.375C9.375 9.63422 9.58453 9.84375 9.84375 9.84375H24.8438C25.103 9.84375 25.3125 9.63422 25.3125 9.375C25.3125 9.11578 25.103 8.90625 24.8438 8.90625Z" fill="#394240"/>
<path d="M24.8438 17.3438H9.84375C9.58453 17.3438 9.375 17.5533 9.375 17.8125C9.375 18.0717 9.58453 18.2812 9.84375 18.2812H24.8438C25.103 18.2812 25.3125 18.0717 25.3125 17.8125C25.3125 17.5533 25.103 17.3438 24.8438 17.3438Z" fill="#394240"/>
<path d="M24.8438 20.1562H9.84375C9.58453 20.1562 9.375 20.3658 9.375 20.625C9.375 20.8842 9.58453 21.0938 9.84375 21.0938H24.8438C25.103 21.0938 25.3125 20.8842 25.3125 20.625C25.3125 20.3658 25.103 20.1562 24.8438 20.1562Z" fill="#394240"/>
<path d="M24.8438 22.9688H9.84375C9.58453 22.9688 9.375 23.1783 9.375 23.4375C9.375 23.6967 9.58453 23.9062 9.84375 23.9062H24.8438C25.103 23.9062 25.3125 23.6967 25.3125 23.4375C25.3125 23.1783 25.103 22.9688 24.8438 22.9688Z" fill="#394240"/>
<path d="M24.8438 14.5312H9.84375C9.58453 14.5312 9.375 14.7408 9.375 15C9.375 15.2592 9.58453 15.4688 9.84375 15.4688H24.8438C25.103 15.4688 25.3125 15.2592 25.3125 15C25.3125 14.7408 25.103 14.5312 24.8438 14.5312Z" fill="#394240"/>
<path d="M9.84375 7.03125H16.875C17.1342 7.03125 17.3438 6.82172 17.3438 6.5625C17.3438 6.30328 17.1342 6.09375 16.875 6.09375H9.84375C9.58453 6.09375 9.375 6.30328 9.375 6.5625C9.375 6.82172 9.58453 7.03125 9.84375 7.03125Z" fill="#394240"/>
<path opacity="0.15" d="M0.9375 16.4062V27.1875C0.9375 28.223 1.77703 29.0625 2.8125 29.0625C3.84797 29.0625 4.6875 28.223 4.6875 27.1875V15.4688H1.875C1.3575 15.4688 0.9375 15.8888 0.9375 16.4062Z" fill="#231F20"/>
</g>
<defs>
<clipPath id="clip0_43_68">
<rect width="30" height="30" fill="white"/>
</clipPath>
</defs>
</svg>
