<svg width="30" height="30" viewBox="0 0 30 30" fill="none" xmlns="http://www.w3.org/2000/svg">
<path d="M26.25 21.5625V5.625C26.25 5.36578 26.0405 5.15625 25.7812 5.15625H4.21875C3.95953 5.15625 3.75 5.36578 3.75 5.625V21.5625C3.75 21.8217 3.95953 22.0312 4.21875 22.0312H25.7812C26.0405 22.0312 26.25 21.8217 26.25 21.5625ZM25.3125 21.0938H4.6875V6.09375H25.3125V21.0938Z" fill="#394240"/>
<path d="M29.5312 22.9688H28.125V5.15625C28.125 4.11984 27.2864 3.28125 26.25 3.28125H3.75C2.71359 3.28125 1.875 4.11984 1.875 5.15625V22.9688H0.46875C0.209531 22.9688 0 23.1783 0 23.4375V24.8438C0 25.8802 0.838594 26.7188 1.875 26.7188H28.125C29.1614 26.7188 30 25.8802 30 24.8438V23.4375C30 23.1783 29.7905 22.9688 29.5312 22.9688ZM2.8125 5.15625C2.8125 4.63875 3.2325 4.21875 3.75 4.21875H26.25C26.7675 4.21875 27.1875 4.63875 27.1875 5.15625V22.9688H16.875C16.6158 22.9688 16.4062 23.1783 16.4062 23.4375V23.9062H13.5938V23.4375C13.5938 23.1783 13.3842 22.9688 13.125 22.9688H2.8125V5.15625ZM29.0625 24.8438C29.0625 25.3612 28.6425 25.7812 28.125 25.7812H1.875C1.3575 25.7812 0.9375 25.3612 0.9375 24.8438V23.9062H12.6562V24.375C12.6562 24.6342 12.8658 24.8438 13.125 24.8438H16.875C17.1342 24.8438 17.3438 24.6342 17.3438 24.375V23.9062H29.0625V24.8438Z" fill="#394240"/>
<path d="M17.3438 23.9062V24.375C17.3438 24.6342 17.1342 24.8438 16.875 24.8438H13.125C12.8658 24.8438 12.6562 24.6342 12.6562 24.375V23.9062H0.9375V24.8438C0.9375 25.3612 1.3575 25.7812 1.875 25.7812H28.125C28.6425 25.7812 29.0625 25.3612 29.0625 24.8438V23.9062H17.3438Z" fill="#F9EBB2"/>
<path d="M13.5938 23.4375V23.9062H16.4062V23.4375C16.4062 23.1783 16.6158 22.9688 16.875 22.9688H27.1875V5.15625C27.1875 4.63875 26.7675 4.21875 26.25 4.21875H3.75C3.2325 4.21875 2.8125 4.63875 2.8125 5.15625V22.9688H13.125C13.3842 22.9688 13.5938 23.1783 13.5938 23.4375ZM3.75 21.5625V5.625C3.75 5.36578 3.95953 5.15625 4.21875 5.15625H25.7812C26.0405 5.15625 26.25 5.36578 26.25 5.625V21.5625C26.25 21.8217 26.0405 22.0312 25.7812 22.0312H4.21875C3.95953 22.0312 3.75 21.8217 3.75 21.5625Z" fill="#F9EBB2"/>
<path d="M25.3125 6.09375H4.6875V21.0938H25.3125V6.09375Z" fill="#45AAB8"/>
</svg>
