<svg width="30" height="30" viewBox="0 0 30 30" fill="none" xmlns="http://www.w3.org/2000/svg">
<g clip-path="url(#clip0_43_2)">
<path d="M2.8125 19.6875H8.90625C9.16547 19.6875 9.375 19.897 9.375 20.1562V22.5H20.625V20.1562C20.625 19.897 20.8345 19.6875 21.0938 19.6875H27.1875V2.8125H2.8125V19.6875Z" fill="#F9EBB2"/>
<path d="M28.125 0.9375H27.6562H2.34375H1.875C1.3575 0.9375 0.9375 1.3575 0.9375 1.875V28.125C0.9375 28.6425 1.3575 29.0625 1.875 29.0625H28.125C28.6425 29.0625 29.0625 28.6425 29.0625 28.125V1.875C29.0625 1.3575 28.6425 0.9375 28.125 0.9375ZM28.125 20.1562C28.125 20.4155 27.9155 20.625 27.6562 20.625H21.5625V22.9688C21.5625 23.228 21.353 23.4375 21.0938 23.4375H8.90625C8.64703 23.4375 8.4375 23.228 8.4375 22.9688V20.625H2.34375C2.08453 20.625 1.875 20.4155 1.875 20.1562V2.34375C1.875 2.08453 2.08453 1.875 2.34375 1.875H27.6562C27.9155 1.875 28.125 2.08453 28.125 2.34375V20.1562Z" fill="#58A9DF"/>
<path d="M28.125 0H1.875C0.838594 0 0 0.838594 0 1.875V28.125C0 29.1614 0.838594 30 1.875 30H28.125C29.1614 30 30 29.1614 30 28.125V1.875C30 0.838594 29.1614 0 28.125 0ZM29.0625 28.125C29.0625 28.6425 28.6425 29.0625 28.125 29.0625H1.875C1.3575 29.0625 0.9375 28.6425 0.9375 28.125V1.875C0.9375 1.3575 1.3575 0.9375 1.875 0.9375H28.125C28.6425 0.9375 29.0625 1.3575 29.0625 1.875V28.125Z" fill="#394240"/>
<path d="M27.6562 1.875H2.34375C2.08453 1.875 1.875 2.08453 1.875 2.34375V20.1562C1.875 20.4155 2.08453 20.625 2.34375 20.625H8.4375V22.9688C8.4375 23.228 8.64703 23.4375 8.90625 23.4375H21.0938C21.353 23.4375 21.5625 23.228 21.5625 22.9688V20.625H27.6562C27.9155 20.625 28.125 20.4155 28.125 20.1562V2.34375C28.125 2.08453 27.9155 1.875 27.6562 1.875ZM27.1875 19.6875H21.0938C20.8345 19.6875 20.625 19.897 20.625 20.1562V22.5H9.375V20.1562C9.375 19.897 9.16547 19.6875 8.90625 19.6875H2.8125V2.8125H27.1875V19.6875Z" fill="#394240"/>
<path d="M7.03125 7.5H22.9688C23.228 7.5 23.4375 7.29047 23.4375 7.03125C23.4375 6.77203 23.228 6.5625 22.9688 6.5625H7.03125C6.77203 6.5625 6.5625 6.77203 6.5625 7.03125C6.5625 7.29047 6.77203 7.5 7.03125 7.5Z" fill="#394240"/>
<path d="M7.03125 13.125H22.9688C23.228 13.125 23.4375 12.9155 23.4375 12.6562C23.4375 12.397 23.228 12.1875 22.9688 12.1875H7.03125C6.77203 12.1875 6.5625 12.397 6.5625 12.6562C6.5625 12.9155 6.77203 13.125 7.03125 13.125Z" fill="#394240"/>
<path d="M7.03125 15.9375H22.9688C23.228 15.9375 23.4375 15.728 23.4375 15.4688C23.4375 15.2095 23.228 15 22.9688 15H7.03125C6.77203 15 6.5625 15.2095 6.5625 15.4688C6.5625 15.728 6.77203 15.9375 7.03125 15.9375Z" fill="#394240"/>
<path d="M7.03125 10.3125H22.9688C23.228 10.3125 23.4375 10.103 23.4375 9.84375C23.4375 9.58453 23.228 9.375 22.9688 9.375H7.03125C6.77203 9.375 6.5625 9.58453 6.5625 9.84375C6.5625 10.103 6.77203 10.3125 7.03125 10.3125Z" fill="#394240"/>
</g>
<defs>
<clipPath id="clip0_43_2">
<rect width="30" height="30" fill="white"/>
</clipPath>
</defs>
</svg>
