<svg width="30" height="30" viewBox="0 0 30 30" fill="none" xmlns="http://www.w3.org/2000/svg">
<g clip-path="url(#clip0_43_84)">
<path d="M15 0C6.71578 0 0 6.71578 0 15C0 23.2842 6.71578 30 15 30C23.2842 30 30 23.2842 30 15C30 6.71578 23.2842 0 15 0ZM23.4244 14.5312C23.3597 11.9147 22.7616 9.43219 21.7308 7.18734C22.9739 6.70828 24.1538 6.10125 25.2534 5.38078C27.5147 7.79016 28.935 10.9945 29.0513 14.5312H23.4244ZM15.6248 29.0466C15.5733 29.0489 15.5208 29.0489 15.4688 29.0508V23.4539C17.0269 23.4947 18.5377 23.7263 19.9711 24.143C18.8362 26.0348 17.3573 27.6956 15.6248 29.0466ZM20.8823 24.4411C21.9525 24.8166 22.9739 25.2928 23.94 25.8558C22.0692 27.398 19.792 28.4634 17.2941 28.8736C18.7041 27.5911 19.9144 26.0962 20.8823 24.4411ZM10.0284 24.143C11.4623 23.7258 12.9731 23.4947 14.5312 23.4539V29.0503C14.4792 29.0484 14.4267 29.0484 14.3752 29.0461C12.6422 27.6956 11.1637 26.0348 10.0284 24.143ZM12.7055 28.8731C10.2075 28.4634 7.93031 27.398 6.05953 25.8553C7.02609 25.2928 8.04703 24.8161 9.11719 24.4411C10.0852 26.0962 11.2959 27.5911 12.7055 28.8731ZM0.949219 14.5312C1.06547 10.9945 2.48531 7.79016 4.74703 5.38078C5.84672 6.10078 7.02609 6.70781 8.26969 7.18734C7.23844 9.43219 6.64031 11.9147 6.57562 14.5312H0.949219ZM20.4234 6.65438C18.8555 7.15547 17.1919 7.43719 15.4688 7.48219V0.949219C15.5208 0.951094 15.5733 0.951094 15.6248 0.953437C17.5973 2.49094 19.2408 4.43109 20.4234 6.65438ZM17.2945 1.12688C20.0808 1.58438 22.5905 2.85937 24.57 4.69969C23.55 5.35172 22.4625 5.90437 21.315 6.33984C20.2866 4.37156 18.923 2.60719 17.2945 1.12688ZM14.5312 0.949219V7.48219C12.8077 7.43719 11.1441 7.15594 9.57656 6.65438C10.7592 4.43109 12.4027 2.49094 14.3752 0.953437C14.4267 0.951094 14.4792 0.951094 14.5312 0.949219ZM8.68547 6.33984C7.53797 5.90437 6.45 5.35172 5.43047 4.69969C7.41 2.85937 9.91922 1.58438 12.7059 1.12688C11.077 2.60719 9.71344 4.37156 8.68547 6.33984ZM9.15562 7.50422C10.8534 8.06156 12.6581 8.38219 14.5312 8.42859V14.5312H7.51453C7.57969 12.0253 8.15766 9.64875 9.15562 7.50422ZM14.5312 15.4688V22.5169C12.8044 22.56 11.1352 22.8286 9.55547 23.3086C8.31188 20.9587 7.58813 18.2948 7.51453 15.4688H14.5312ZM15.4688 22.5169V15.4688H22.4855C22.4123 18.2948 21.6881 20.9588 20.4445 23.3091C18.8648 22.8286 17.1956 22.56 15.4688 22.5169ZM15.4688 14.5312V8.42812C17.3419 8.38172 19.1466 8.06156 20.8444 7.50375C21.8423 9.64828 22.4203 12.0253 22.4855 14.5308L15.4688 14.5312ZM0.949219 15.4688H6.57562C6.64781 18.3998 7.39125 21.1622 8.66016 23.6105C7.49016 24.0319 6.37688 24.5686 5.32781 25.2023C2.73141 22.7405 1.07531 19.2994 0.949219 15.4688ZM24.6722 25.2028C23.6231 24.5686 22.5098 24.0323 21.3398 23.6109C22.6088 21.1622 23.3522 18.4003 23.4244 15.4692H29.0508C28.9247 19.2994 27.2686 22.7405 24.6722 25.2028Z" fill="white"/>
<path d="M23.4244 14.5313H29.0508C28.9345 10.9945 27.5147 7.79017 25.253 5.3808C24.1533 6.1008 22.9739 6.70783 21.7303 7.18736C22.7616 9.4322 23.3597 11.9147 23.4244 14.5313Z" fill="#45AAB8"/>
<path d="M19.9711 24.143C18.5372 23.7263 17.0269 23.4947 15.4688 23.4539V29.0503C15.5208 29.0484 15.5733 29.0484 15.6248 29.0461C17.3573 27.6956 18.8362 26.0349 19.9711 24.143Z" fill="#45AAB8"/>
<path d="M17.2945 28.8731C19.7925 28.4634 22.0697 27.398 23.9405 25.8553C22.9739 25.2928 21.953 24.8161 20.8828 24.4406C19.9144 26.0962 18.7041 27.5911 17.2945 28.8731Z" fill="#45AAB8"/>
<path d="M14.3752 29.0466C14.4267 29.0489 14.4792 29.0489 14.5313 29.0508V23.4539C12.9731 23.4947 11.4619 23.7258 10.0284 24.143C11.1638 26.0349 12.6422 27.6956 14.3752 29.0466Z" fill="#45AAB8"/>
<path d="M9.11765 24.4411C8.0475 24.8161 7.02609 25.2924 6.06 25.8553C7.93078 27.398 10.208 28.4634 12.7059 28.8731C11.2959 27.5911 10.0852 26.0963 9.11765 24.4411Z" fill="#45AAB8"/>
<path d="M8.26969 7.18736C7.02656 6.7083 5.84672 6.10127 4.74703 5.3808C2.48578 7.79017 1.06547 10.9945 0.949219 14.5313H6.57563C6.64031 11.9147 7.23844 9.4322 8.26969 7.18736Z" fill="#45AAB8"/>
<path d="M15.6248 0.953437C15.5733 0.951094 15.5208 0.951094 15.4688 0.949219V7.48219C17.1923 7.43719 18.8559 7.15594 20.4234 6.65437C19.2408 4.43109 17.5973 2.49094 15.6248 0.953437Z" fill="#45AAB8"/>
<path d="M21.3145 6.33986C22.462 5.90439 23.55 5.35174 24.5695 4.6997C22.59 2.85939 20.0808 1.58439 17.2941 1.12689C18.923 2.6072 20.2866 4.37158 21.3145 6.33986Z" fill="#45AAB8"/>
<path d="M9.57657 6.65437C11.1445 7.15547 12.8081 7.43719 14.5313 7.48219V0.949219C14.4792 0.951094 14.4267 0.951094 14.3752 0.953437C12.4027 2.49094 10.7592 4.43109 9.57657 6.65437Z" fill="#45AAB8"/>
<path d="M12.7055 1.12689C9.91921 1.58439 7.40952 2.85939 5.42999 4.6997C6.44999 5.35174 7.53749 5.90439 8.68499 6.33986C9.71343 4.37158 11.077 2.6072 12.7055 1.12689Z" fill="#45AAB8"/>
<path d="M7.51453 14.5312H14.5312V8.4281C12.6581 8.38169 10.8534 8.06154 9.15562 7.50372C8.15765 9.64872 7.57968 12.0253 7.51453 14.5312Z" fill="#45AAB8"/>
<path d="M9.55546 23.3091C11.1352 22.8291 12.8048 22.56 14.5312 22.5173V15.4688H7.51453C7.58812 18.2948 8.31187 20.9588 9.55546 23.3091Z" fill="#45AAB8"/>
<path d="M22.4855 15.4688H15.4688V22.5169C17.1956 22.56 18.8648 22.8286 20.4445 23.3086C21.6881 20.9587 22.4119 18.2948 22.4855 15.4688Z" fill="#45AAB8"/>
<path d="M20.8444 7.50421C19.1466 8.06156 17.3419 8.38218 15.4688 8.42812V14.5312H22.4855C22.4203 12.0253 21.8423 9.64874 20.8444 7.50421Z" fill="#45AAB8"/>
<path d="M6.57563 15.4688H0.949219C1.07531 19.2994 2.73141 22.7405 5.32781 25.2028C6.37687 24.5686 7.49016 24.0323 8.66016 23.6109C7.39172 21.1622 6.64828 18.3998 6.57563 15.4688Z" fill="#45AAB8"/>
<path d="M21.3394 23.6104C22.5094 24.0319 23.6227 24.5686 24.6717 25.2023C27.2681 22.74 28.9242 19.2989 29.0503 15.4683H23.4244C23.3517 18.3998 22.6083 21.1622 21.3394 23.6104Z" fill="#45AAB8"/>
<g opacity="0.2">
<path d="M23.4244 14.5313H29.0508C28.9345 10.9945 27.5147 7.79017 25.253 5.3808C24.1533 6.1008 22.9739 6.70783 21.7303 7.18736C22.7616 9.4322 23.3597 11.9147 23.4244 14.5313Z" fill="black"/>
<path d="M17.2945 28.8731C19.7925 28.4634 22.0697 27.398 23.9405 25.8553C22.9739 25.2928 21.953 24.8161 20.8828 24.4406C19.9144 26.0962 18.7041 27.5911 17.2945 28.8731Z" fill="black"/>
<path d="M21.3145 6.33986C22.462 5.90439 23.55 5.35174 24.5695 4.6997C22.59 2.85939 20.0808 1.58439 17.2941 1.12689C18.923 2.6072 20.2866 4.37158 21.3145 6.33986Z" fill="black"/>
<path d="M21.3394 23.6105C22.5094 24.0319 23.6227 24.5686 24.6717 25.2024C27.2681 22.74 28.9242 19.2989 29.0503 15.4683H23.4244C23.3517 18.3999 22.6083 21.1622 21.3394 23.6105Z" fill="black"/>
</g>
</g>
<defs>
<clipPath id="clip0_43_84">
<rect width="30" height="30" fill="white"/>
</clipPath>
</defs>
</svg>
