<svg width="30" height="30" viewBox="0 0 30 30" fill="none" xmlns="http://www.w3.org/2000/svg">
<g clip-path="url(#clip0_43_45)">
<path d="M7.03125 0.9375C4.44234 0.9375 2.34375 3.03609 2.34375 5.625C2.34375 8.21391 4.44234 10.3125 7.03125 10.3125C9.62016 10.3125 11.7188 8.21391 11.7188 5.625C11.7188 3.03609 9.62016 0.9375 7.03125 0.9375ZM4.6875 6.09375C4.42828 6.09375 4.21875 5.88422 4.21875 5.625C4.21875 5.36578 4.42828 5.15625 4.6875 5.15625C4.94672 5.15625 5.15625 5.36578 5.15625 5.625C5.15625 5.88422 4.94672 6.09375 4.6875 6.09375ZM7.03125 8.4375C6.77203 8.4375 6.5625 8.22797 6.5625 7.96875C6.5625 7.70953 6.77203 7.5 7.03125 7.5C7.29047 7.5 7.5 7.70953 7.5 7.96875C7.5 8.22797 7.29047 8.4375 7.03125 8.4375ZM7.03125 3.75C6.77203 3.75 6.5625 3.54047 6.5625 3.28125C6.5625 3.02203 6.77203 2.8125 7.03125 2.8125C7.29047 2.8125 7.5 3.02203 7.5 3.28125C7.5 3.54047 7.29047 3.75 7.03125 3.75ZM9.375 6.09375C9.11578 6.09375 8.90625 5.88422 8.90625 5.625C8.90625 5.36578 9.11578 5.15625 9.375 5.15625C9.63422 5.15625 9.84375 5.36578 9.84375 5.625C9.84375 5.88422 9.63422 6.09375 9.375 6.09375Z" fill="#506C7F"/>
<path d="M17.3438 0.9375C14.7548 0.9375 12.6562 3.03609 12.6562 5.625C12.6562 8.21391 14.7548 10.3125 17.3438 10.3125C19.9327 10.3125 22.0312 8.21391 22.0312 5.625C22.0312 3.03609 19.9327 0.9375 17.3438 0.9375ZM15 6.09375C14.7408 6.09375 14.5312 5.88422 14.5312 5.625C14.5312 5.36578 14.7408 5.15625 15 5.15625C15.2592 5.15625 15.4688 5.36578 15.4688 5.625C15.4688 5.88422 15.2592 6.09375 15 6.09375ZM17.3438 8.4375C17.0845 8.4375 16.875 8.22797 16.875 7.96875C16.875 7.70953 17.0845 7.5 17.3438 7.5C17.603 7.5 17.8125 7.70953 17.8125 7.96875C17.8125 8.22797 17.603 8.4375 17.3438 8.4375ZM17.3438 3.75C17.0845 3.75 16.875 3.54047 16.875 3.28125C16.875 3.02203 17.0845 2.8125 17.3438 2.8125C17.603 2.8125 17.8125 3.02203 17.8125 3.28125C17.8125 3.54047 17.603 3.75 17.3438 3.75ZM19.6875 6.09375C19.4283 6.09375 19.2188 5.88422 19.2188 5.625C19.2188 5.36578 19.4283 5.15625 19.6875 5.15625C19.9467 5.15625 20.1562 5.36578 20.1562 5.625C20.1562 5.88422 19.9467 6.09375 19.6875 6.09375Z" fill="#506C7F"/>
<path d="M23.4375 28.125C23.4375 28.6425 23.0175 29.0625 22.5 29.0625H1.875C1.3575 29.0625 0.9375 28.6425 0.9375 28.125V12.1875C0.9375 11.67 1.3575 11.25 1.875 11.25H22.5C23.0175 11.25 23.4375 11.67 23.4375 12.1875V28.125Z" fill="#45AAB8"/>
<path d="M24.375 24.037L27.1875 24.9745V15.338L24.375 16.275V24.037Z" fill="#F9EBB2"/>
<path d="M28.125 15.0258V25.2867L29.0625 25.5994V14.7131L28.125 15.0258Z" fill="#F9EBB2"/>
<path d="M18.2812 5.625C18.2812 6.40125 18.9112 7.03125 19.6875 7.03125C20.4638 7.03125 21.0938 6.40125 21.0938 5.625C21.0938 4.84875 20.4638 4.21875 19.6875 4.21875C18.9112 4.21875 18.2812 4.84875 18.2812 5.625ZM19.6875 5.15625C19.9467 5.15625 20.1562 5.36578 20.1562 5.625C20.1562 5.88422 19.9467 6.09375 19.6875 6.09375C19.4283 6.09375 19.2188 5.88422 19.2188 5.625C19.2188 5.36578 19.4283 5.15625 19.6875 5.15625Z" fill="#394240"/>
<path d="M17.3438 4.6875C18.12 4.6875 18.75 4.0575 18.75 3.28125C18.75 2.505 18.12 1.875 17.3438 1.875C16.5675 1.875 15.9375 2.505 15.9375 3.28125C15.9375 4.0575 16.5675 4.6875 17.3438 4.6875ZM17.3438 2.8125C17.603 2.8125 17.8125 3.02203 17.8125 3.28125C17.8125 3.54047 17.603 3.75 17.3438 3.75C17.0845 3.75 16.875 3.54047 16.875 3.28125C16.875 3.02203 17.0845 2.8125 17.3438 2.8125Z" fill="#394240"/>
<path d="M17.3438 6.5625C16.5675 6.5625 15.9375 7.1925 15.9375 7.96875C15.9375 8.745 16.5675 9.375 17.3438 9.375C18.12 9.375 18.75 8.745 18.75 7.96875C18.75 7.1925 18.12 6.5625 17.3438 6.5625ZM17.3438 8.4375C17.0845 8.4375 16.875 8.22797 16.875 7.96875C16.875 7.70953 17.0845 7.5 17.3438 7.5C17.603 7.5 17.8125 7.70953 17.8125 7.96875C17.8125 8.22797 17.603 8.4375 17.3438 8.4375Z" fill="#394240"/>
<path d="M16.4062 5.625C16.4062 4.84875 15.7763 4.21875 15 4.21875C14.2237 4.21875 13.5938 4.84875 13.5938 5.625C13.5938 6.40125 14.2237 7.03125 15 7.03125C15.7763 7.03125 16.4062 6.40125 16.4062 5.625ZM14.5312 5.625C14.5312 5.36578 14.7408 5.15625 15 5.15625C15.2592 5.15625 15.4688 5.36578 15.4688 5.625C15.4688 5.88422 15.2592 6.09375 15 6.09375C14.7408 6.09375 14.5312 5.88422 14.5312 5.625Z" fill="#394240"/>
<path d="M10.7812 5.625C10.7812 4.84875 10.1513 4.21875 9.375 4.21875C8.59875 4.21875 7.96875 4.84875 7.96875 5.625C7.96875 6.40125 8.59875 7.03125 9.375 7.03125C10.1513 7.03125 10.7812 6.40125 10.7812 5.625ZM9.375 6.09375C9.11578 6.09375 8.90625 5.88422 8.90625 5.625C8.90625 5.36578 9.11578 5.15625 9.375 5.15625C9.63422 5.15625 9.84375 5.36578 9.84375 5.625C9.84375 5.88422 9.63422 6.09375 9.375 6.09375Z" fill="#394240"/>
<path d="M7.03125 4.6875C7.8075 4.6875 8.4375 4.0575 8.4375 3.28125C8.4375 2.505 7.8075 1.875 7.03125 1.875C6.255 1.875 5.625 2.505 5.625 3.28125C5.625 4.0575 6.255 4.6875 7.03125 4.6875ZM7.03125 2.8125C7.29047 2.8125 7.5 3.02203 7.5 3.28125C7.5 3.54047 7.29047 3.75 7.03125 3.75C6.77203 3.75 6.5625 3.54047 6.5625 3.28125C6.5625 3.02203 6.77203 2.8125 7.03125 2.8125Z" fill="#394240"/>
<path d="M7.03125 6.5625C6.255 6.5625 5.625 7.1925 5.625 7.96875C5.625 8.745 6.255 9.375 7.03125 9.375C7.8075 9.375 8.4375 8.745 8.4375 7.96875C8.4375 7.1925 7.8075 6.5625 7.03125 6.5625ZM7.03125 8.4375C6.77203 8.4375 6.5625 8.22797 6.5625 7.96875C6.5625 7.70953 6.77203 7.5 7.03125 7.5C7.29047 7.5 7.5 7.70953 7.5 7.96875C7.5 8.22797 7.29047 8.4375 7.03125 8.4375Z" fill="#394240"/>
<path d="M6.09375 5.625C6.09375 4.84875 5.46375 4.21875 4.6875 4.21875C3.91125 4.21875 3.28125 4.84875 3.28125 5.625C3.28125 6.40125 3.91125 7.03125 4.6875 7.03125C5.46375 7.03125 6.09375 6.40125 6.09375 5.625ZM4.6875 6.09375C4.42828 6.09375 4.21875 5.88422 4.21875 5.625C4.21875 5.36578 4.42828 5.15625 4.6875 5.15625C4.94672 5.15625 5.15625 5.36578 5.15625 5.625C5.15625 5.88422 4.94672 6.09375 4.6875 6.09375Z" fill="#394240"/>
<path d="M29.8055 13.6819C29.6827 13.5937 29.5252 13.5689 29.3831 13.6177L24.375 15.2869V12.1875C24.375 11.1511 23.5364 10.3125 22.5 10.3125H20.4506C21.9675 9.30562 22.9688 7.58297 22.9688 5.625C22.9688 2.51766 20.4497 0 17.3438 0C15.0361 0 13.0552 1.39125 12.1875 3.38016C11.3198 1.39125 9.33891 0 7.03125 0C3.92531 0 1.40625 2.51766 1.40625 5.625C1.40625 7.58297 2.4075 9.30562 3.92437 10.3125H1.875C0.838594 10.3125 0 11.1511 0 12.1875V28.125C0 29.1614 0.838594 30 1.875 30H22.5C23.5364 30 24.375 29.1614 24.375 28.125V25.0252L29.3831 26.6948C29.4314 26.7108 29.4816 26.7188 29.5312 26.7188C29.6283 26.7188 29.7244 26.6888 29.8055 26.6306C29.9278 26.542 30 26.4005 30 26.25V14.0625C30 13.912 29.9278 13.7705 29.8055 13.6819ZM17.3438 0.9375C19.9327 0.9375 22.0312 3.03609 22.0312 5.625C22.0312 8.21391 19.9327 10.3125 17.3438 10.3125C14.7548 10.3125 12.6562 8.21391 12.6562 5.625C12.6562 3.03609 14.7548 0.9375 17.3438 0.9375ZM14.2369 10.3125H10.1381C11.0363 9.71625 11.752 8.86875 12.1875 7.86984C12.623 8.86875 13.3387 9.71625 14.2369 10.3125ZM2.34375 5.625C2.34375 3.03609 4.44234 0.9375 7.03125 0.9375C9.62016 0.9375 11.7188 3.03609 11.7188 5.625C11.7188 8.21391 9.62016 10.3125 7.03125 10.3125C4.44234 10.3125 2.34375 8.21391 2.34375 5.625ZM23.4375 28.125C23.4375 28.6425 23.0175 29.0625 22.5 29.0625H1.875C1.3575 29.0625 0.9375 28.6425 0.9375 28.125V12.1875C0.9375 11.67 1.3575 11.25 1.875 11.25H22.5C23.0175 11.25 23.4375 11.67 23.4375 12.1875V28.125ZM27.1875 24.9745L24.375 24.037V16.275L27.1875 15.338V24.9745ZM29.0625 25.5994L28.125 25.2867V15.0258L29.0625 14.7131V25.5994Z" fill="#394240"/>
<path d="M16.875 16.875H7.5C7.24078 16.875 7.03125 17.085 7.03125 17.3438V22.9688C7.03125 23.2275 7.24078 23.4375 7.5 23.4375H16.875C17.1342 23.4375 17.3438 23.2275 17.3438 22.9688V17.3438C17.3438 17.085 17.1342 16.875 16.875 16.875ZM16.4062 22.5H7.96875V17.8125H16.4062V22.5Z" fill="#394240"/>
<path opacity="0.15" d="M29.0625 25.5994L28.125 25.2867V15.0258L29.0625 14.7131V25.5994Z" fill="black"/>
<path opacity="0.2" d="M16.4062 17.8125H7.96875V22.5H16.4062V17.8125Z" fill="white"/>
</g>
<defs>
<clipPath id="clip0_43_45">
<rect width="30" height="30" fill="white"/>
</clipPath>
</defs>
</svg>
