<svg width="183" height="25" viewBox="0 0 183 25" fill="none" xmlns="http://www.w3.org/2000/svg">
<path d="M23.1 17.5C23.3 17.4 23.5 17.2 23.6 16.9C23.5 16.6 23.4 16.4 23.1 16.2C22.9 16.1 22.4 16 21.8 16H10.1C3.80002 16 0.700012 13.7 0.700012 9.09998V7.39998C0.700012 2.79998 3.80002 0.599976 10.1 0.599976H33.8V7.39998H12.7C12.1 7.39998 11.7 7.49998 11.4 7.59998C11.1 7.69998 11 7.89999 10.9 8.29999C11 8.59999 11.1 8.79998 11.4 8.99998C11.7 9.19998 12.1 9.19998 12.7 9.19998H24.4C30.7 9.19998 33.8 11.5 33.8 16.1V17.8C33.8 22.4 30.7 24.6 24.4 24.6H0.700012V17.7H21.8C22.4 17.7 22.9 17.6 23.1 17.5Z" fill="#0040FF"/>
<path d="M59.2001 0.599991H69.4V24.5H45.7C39.4 24.5 36.3 22.2 36.3 17.6V0.5H46.5V15.9C46.5 17 47.4001 17.6 49.1001 17.6H59.1001V0.599991H59.2001Z" fill="#0040FF"/>
<path d="M81.4 24.5C75.1 24.5 72 22.2 72 17.6V0.5H82.2V15.9C82.2 17 83.1 17.6 84.8 17.6H101V24.5H81.4Z" fill="#0040FF"/>
<path d="M103.5 24.5V0.599976H113.7V24.5H103.5Z" fill="#0040FF"/>
<path d="M116.3 24.5V0.599976H126.5V9.09998H130.2L138 0.599976H149.4L138.6 12.6L149.4 24.6H138L130.2 16H126.6V24.6H116.3V24.5Z" fill="#0040FF"/>
<path d="M183 17.7C183 22.3 179.9 24.6 173.6 24.6H159.2C152.9 24.6 149.8 22.3 149.8 17.7V7.50002C149.8 2.90002 152.9 0.700012 159.2 0.700012H173.6C179.9 0.700012 183 3.00002 183 7.50002V17.7ZM160 16C160 17.1 160.9 17.7 162.6 17.7H170.2C171.9 17.7 172.8 17.1 172.8 16V9.20001C172.8 8.10001 171.9 7.50002 170.2 7.50002H162.6C160.9 7.50002 160 8.10001 160 9.20001V16Z" fill="#0040FF"/>
</svg>
