<svg width="285" height="73" viewBox="0 0 285 73" fill="none" xmlns="http://www.w3.org/2000/svg">
<path d="M125.1 42.5C125.3 42.4 125.5 42.2 125.6 41.9C125.5 41.6 125.4 41.4 125.1 41.2C124.9 41.1 124.4 41 123.8 41H112.1C105.8 41 102.7 38.7 102.7 34.1V32.4C102.7 27.8 105.8 25.6 112.1 25.6H135.8V32.4H114.7C114.1 32.4 113.7 32.5 113.4 32.6C113.1 32.7 113 32.9 112.9 33.3C113 33.6 113.1 33.8 113.4 34C113.7 34.2 114.1 34.2 114.7 34.2H126.4C132.7 34.2 135.8 36.5 135.8 41.1V42.8C135.8 47.4 132.7 49.6 126.4 49.6H102.7V42.7H123.8C124.4 42.7 124.9 42.6 125.1 42.5Z" fill="#1C1C1C"/>
<path d="M161.2 25.6H171.4V49.5H147.7C141.4 49.5 138.3 47.2 138.3 42.6V25.5H148.5V40.9C148.5 42 149.4 42.6 151.1 42.6H161.1V25.6H161.2Z" fill="#1C1C1C"/>
<path d="M183.4 49.5C177.1 49.5 174 47.2 174 42.6V25.5H184.2V40.9C184.2 42 185.1 42.6 186.8 42.6H203V49.5H183.4Z" fill="#1C1C1C"/>
<path d="M205.5 49.5V25.6H215.7V49.5H205.5Z" fill="#1C1C1C"/>
<path d="M218.3 49.5V25.6H228.5V34.1H232.2L240 25.6H251.4L240.6 37.6L251.4 49.6H240L232.2 41H228.6V49.6H218.3V49.5Z" fill="#1C1C1C"/>
<path d="M285 42.7C285 47.3 281.9 49.6 275.6 49.6H261.2C254.9 49.6 251.8 47.3 251.8 42.7V32.5C251.8 27.9 254.9 25.7 261.2 25.7H275.6C281.9 25.7 285 28 285 32.5V42.7ZM262 41C262 42.1 262.9 42.7 264.6 42.7H272.2C273.9 42.7 274.8 42.1 274.8 41V34.2C274.8 33.1 273.9 32.5 272.2 32.5H264.6C262.9 32.5 262 33.1 262 34.2V41Z" fill="#1C1C1C"/>
<path d="M73.7 6.3L73.6 6.2L66.2 2.7L53.7 2.2L49.7 0L41.6 2.5L32.5 1L20 4.09999L12.2 16L2 22.5L0 45.7L8.5 53.5L10.4 60.7L19.9 65.8H27.8L31.3 72.5L41 70.2L47.6 58.7L50.3 59.3L55.7 61L71.3 55L74.6 47.2L88.2 44.2L90.4 23.6L73.7 6.3ZM69.6 33.1L68.9 32.8L66.4 25.8L68.6 24.3L81.4 25.7L83.1 28.2L78.4 32.3L69.6 33.1ZM70.4 43.9C63.9 41.8 57.5 39.8 51 37.7C51.1 37.1 51.3 36.5 51.4 35.8C56.7 35.7 62 35.6 67.3 35.5L70.4 43.9ZM82.5 19.7C81.4 21.4 80.8 22.2 80.6 22.7L68.7 21.4L67.5 18L73.2 10L82.5 19.7ZM54.4 5.89999L54.7 5.2L65.4 5.59999L70.9 8.2L63 19.3L52.7 10.9L54.4 5.89999ZM52.7 14.7L62 22.3L62.2 22.6L65.8 32.7L52.1 33.1L46.3 32.7L46.2 31.1L52.3 26.3L52.7 14.7ZM32.6 4L40.5 5.3L49.8 12.8L49.5 19.3L46.2 20.5L44.7 19.5L28.8 9.2L27.9 5.2L32.6 4ZM45.9 27.5L37.7 33.9L34.5 43.9L29.8 41.6L29 26.3L30.8 23.5L44.8 24.5L45.9 27.5ZM26.9 11.4L39.7 19.7L39.6 21.3L28.9 20.6L26.9 19.3L25.3 13.2L26.9 11.4ZM26.8 41.2L10.6 42L9.5 39.9L23.6 27.1L26.1 28.1L26.8 41.2ZM6.5 38.6L3.7 37.9L4.9 24.2L14.3 18.2L19.2 10.8L22 11.6L24.8 22.1L6.5 38.6ZM6.5 47.6L10.2 45L24.4 44.3L19.4 52.4L10.9 51.6L6.5 47.6ZM20.7 62.8L13 58.6L12 54.6L19.9 55.3L26.4 62.7H20.7V62.8ZM22.1 53.6L27.8 44.2H28L33.8 47L27.9 60.1L22.1 53.6ZM39.2 67.5L33 69L29.8 63L35.9 49.6L45.2 57L39.2 67.5ZM46.8 54.7L36.9 46.8L37 45.7L38.6 40.8L41.5 40.5L49.4 52.6L46.8 54.7ZM69.1 52.7L56.3 57.6L55.6 56.6L44.4 39.6L45.3 38.9L70.8 47.2L69.1 52.7ZM85.5 41.8L73.7 44.4L70.6 36L79.8 35.2L83.9 31.6L86.6 32.4L85.5 41.8Z" fill="#0040FF"/>
</svg>
