<svg width="286" height="74" viewBox="0 0 286 74" fill="none" xmlns="http://www.w3.org/2000/svg">
<path d="M125.6 43.3001C125.8 43.2001 126 43.0001 126.1 42.7001C126 42.4001 125.9 42.2002 125.6 42.0002C125.4 41.9002 124.9 41.8002 124.3 41.8002H112.6C106.3 41.8002 103.2 39.5001 103.2 34.9001V33.2001C103.2 28.6001 106.3 26.4001 112.6 26.4001H136.3V33.2001H115.2C114.6 33.2001 114.2 33.3001 113.9 33.4001C113.6 33.5001 113.5 33.7002 113.4 34.1002C113.5 34.4002 113.6 34.6002 113.9 34.8002C114.2 35.0002 114.6 35.0002 115.2 35.0002H126.9C133.2 35.0002 136.3 37.3001 136.3 41.9001V43.6002C136.3 48.2002 133.2 50.4001 126.9 50.4001H103.2V43.5002H124.3C124.9 43.5002 125.4 43.4001 125.6 43.3001Z" fill="white"/>
<path d="M161.7 26.4H171.9V50.3H148.2C141.9 50.3 138.8 48 138.8 43.4V26.3H149V41.7C149 42.8 149.9 43.4 151.6 43.4H161.6V26.4H161.7Z" fill="white"/>
<path d="M183.9 50.3C177.6 50.3 174.5 48 174.5 43.4V26.3H184.7V41.7C184.7 42.8 185.6 43.4 187.3 43.4H203.5V50.3H183.9Z" fill="white"/>
<path d="M206 50.3001V26.4001H216.2V50.3001H206Z" fill="white"/>
<path d="M218.8 50.3001V26.4001H229V34.9001H232.7L240.5 26.4001H251.9L241.1 38.4001L251.9 50.4001H240.5L232.7 41.8002H229.1V50.4001H218.8V50.3001Z" fill="white"/>
<path d="M285.5 43.5C285.5 48.1 282.4 50.4 276.1 50.4H261.7C255.4 50.4 252.3 48.1 252.3 43.5V33.3C252.3 28.7 255.4 26.5 261.7 26.5H276.1C282.4 26.5 285.5 28.8 285.5 33.3V43.5ZM262.5 41.8C262.5 42.9 263.4 43.5 265.1 43.5H272.7C274.4 43.5 275.3 42.9 275.3 41.8V35C275.3 33.9 274.4 33.3 272.7 33.3H265.1C263.4 33.3 262.5 33.9 262.5 35V41.8Z" fill="white"/>
<path d="M74.2 7.10005L74.1 7.00005L66.7 3.50005L54.2 3.00005L50.2 0.800049L42.1 3.30005L33 1.80005L20.5 4.90004L12.7 16.8L2.5 23.3L0.5 46.5L9 54.3L10.9 61.5L20.4 66.6001H28.3L31.8 73.3L41.5 71L48.1 59.5L50.8 60.1001L56.2 61.8L71.8 55.8L75.1 48L88.7 45L90.9 24.4L74.2 7.10005ZM70.1 33.9L69.4 33.6001L66.9 26.6001L69.1 25.1001L81.9 26.5L83.6 29L78.9 33.1001L70.1 33.9ZM70.9 44.7001C64.4 42.6001 58 40.6 51.5 38.5C51.6 37.9 51.8 37.3001 51.9 36.6001C57.2 36.5001 62.5 36.4 67.8 36.3L70.9 44.7001ZM83 20.5C81.9 22.2 81.3 23 81.1 23.5L69.2 22.2L68 18.8L73.7 10.8L83 20.5ZM54.9 6.70004L55.2 6.00005L65.9 6.40004L71.4 9.00005L63.5 20.1001L53.2 11.7L54.9 6.70004ZM53.2 15.5L62.5 23.1001L62.7 23.4L66.3 33.5L52.6 33.9L46.8 33.5L46.7 31.9L52.8 27.1001L53.2 15.5ZM33.1 4.80005L41 6.10005L50.3 13.6001L50 20.1001L46.7 21.3L45.2 20.3L29.3 10L28.4 6.00005L33.1 4.80005ZM46.4 28.3L38.2 34.7L35 44.7001L30.3 42.4L29.5 27.1001L31.3 24.3L45.3 25.3L46.4 28.3ZM27.4 12.2L40.2 20.5L40.1 22.1001L29.4 21.4L27.4 20.1001L25.8 14L27.4 12.2ZM27.3 42L11.1 42.8L10 40.7L24.1 27.9L26.6 28.9L27.3 42ZM7 39.4L4.2 38.7L5.4 25L14.8 19L19.7 11.6001L22.5 12.4L25.3 22.9L7 39.4ZM7 48.4L10.7 45.8L24.9 45.1001L19.9 53.2001L11.4 52.4L7 48.4ZM21.2 63.6001L13.5 59.4L12.5 55.4L20.4 56.1001L26.9 63.5H21.2V63.6001ZM22.6 54.4L28.3 45H28.5L34.3 47.8L28.4 60.9L22.6 54.4ZM39.7 68.3L33.5 69.8L30.3 63.8L36.4 50.4L45.7 57.8L39.7 68.3ZM47.3 55.5L37.4 47.6001L37.5 46.5L39.1 41.6001L42 41.3L49.9 53.4L47.3 55.5ZM69.6 53.5L56.8 58.4L56.1 57.4L44.9 40.4L45.8 39.7L71.3 48L69.6 53.5ZM86 42.6001L74.2 45.2001L71.1 36.8L80.3 36L84.4 32.4L87.1 33.2L86 42.6001Z" fill="white"/>
</svg>
