<svg width="100" height="66" viewBox="0 0 100 66" fill="none" xmlns="http://www.w3.org/2000/svg">
<path d="M92.5107 65.7586H7.48926C3.35293 65.7586 0 62.4057 0 58.2693V7.73065C0 3.59452 3.35293 0.241394 7.48926 0.241394H92.5107C96.6469 0.241394 100 3.59432 100 7.73065V58.2695C100 62.4057 96.6471 65.7586 92.5107 65.7586Z" fill="#F5F5F5"/>
<path d="M100 27.8275H55.1725V0.241394H44.8275V27.8275H0V38.1724H44.8275V65.7586H55.1725V38.1724H100V27.8275Z" fill="#FF4B55"/>
<path d="M29.3104 11.6783C27.6025 11.85 25.9295 12.022 24.2541 12.1943C24.4264 10.5187 24.5982 8.84568 24.7703 7.13806C23.2041 7.3406 21.6238 7.3406 20.0576 7.13806C20.2293 8.84587 20.4014 10.5189 20.5738 12.1943C18.8982 12.0222 17.225 11.8502 15.5176 11.6783C15.7201 13.2443 15.7201 14.8248 15.5176 16.3908C17.2254 16.2191 18.8984 16.047 20.5738 15.8748C20.4016 17.5504 20.2295 19.2234 20.0576 20.931C21.6238 20.7285 23.2041 20.7285 24.7703 20.931C24.5986 19.2234 24.4264 17.5502 24.2541 15.8748C25.9297 16.0469 27.6027 16.2189 29.3104 16.3908C29.1078 14.8248 29.1078 13.2441 29.3104 11.6783Z" fill="#FF4B55"/>
<path d="M84.4827 11.6783C82.7749 11.85 81.1019 12.022 79.4265 12.1943C79.5987 10.5187 79.7706 8.84568 79.9427 7.13806C78.3765 7.3406 76.7962 7.3406 75.23 7.13806C75.4017 8.84587 75.5737 10.5189 75.7462 12.1943C74.0706 12.0222 72.3974 11.8502 70.6899 11.6783C70.8925 13.2443 70.8925 14.8248 70.6899 16.3908C72.3978 16.2191 74.0708 16.047 75.7462 15.8748C75.5739 17.5504 75.4019 19.2234 75.23 20.931C76.7962 20.7285 78.3765 20.7285 79.9427 20.931C79.771 19.2234 79.5987 17.5502 79.4265 15.8748C81.102 16.0469 82.7751 16.2189 84.4827 16.3908C84.2804 14.8248 84.2804 13.2441 84.4827 11.6783Z" fill="#FF4B55"/>
<path d="M29.3104 49.6091C27.6025 49.7808 25.9295 49.9529 24.2541 50.1252C24.4264 48.4496 24.5982 46.7765 24.7703 45.0689C23.2041 45.2714 21.6238 45.2714 20.0576 45.0689C20.2293 46.7765 20.4014 48.4498 20.5738 50.1252C18.8982 49.9531 17.225 49.781 15.5176 49.6091C15.7201 51.1752 15.7201 52.7556 15.5176 54.3216C17.2254 54.15 18.8984 53.9779 20.5738 53.8056C20.4016 55.4812 20.2295 57.1543 20.0576 58.8619C21.6238 58.6593 23.2041 58.6593 24.7703 58.8619C24.5986 57.1543 24.4264 55.481 24.2541 53.8056C25.9297 53.9777 27.6027 54.1498 29.3104 54.3216C29.1078 52.7558 29.1078 51.1752 29.3104 49.6091Z" fill="#FF4B55"/>
<path d="M84.4827 49.6091C82.7749 49.7808 81.1019 49.9529 79.4265 50.1252C79.5987 48.4496 79.7706 46.7765 79.9427 45.0689C78.3765 45.2714 76.7962 45.2714 75.23 45.0689C75.4017 46.7765 75.5737 48.4498 75.7462 50.1252C74.0706 49.9531 72.3974 49.781 70.6899 49.6091C70.8925 51.1752 70.8925 52.7556 70.6899 54.3216C72.3978 54.15 74.0708 53.9779 75.7462 53.8056C75.5739 55.4812 75.4019 57.1543 75.23 58.8619C76.7962 58.6593 78.3765 58.6593 79.9427 58.8619C79.771 57.1543 79.5987 55.481 79.4265 53.8056C81.102 53.9777 82.7751 54.1498 84.4827 54.3216C84.2804 52.7558 84.2804 51.1752 84.4827 49.6091Z" fill="#FF4B55"/>
</svg>
