<svg width="100" height="100" viewBox="0 0 100 100" fill="none" xmlns="http://www.w3.org/2000/svg">
<g clip-path="url(#clip0_268_911)">
<path fill-rule="evenodd" clip-rule="evenodd" d="M50.3706 13.644C84.806 13.644 71.3853 70.709 50.3706 70.709C30.5227 70.709 15.9353 13.644 50.3706 13.644Z" fill="#FFE8BE"/>
<path d="M50 100C77.6142 100 100 77.6142 100 50C100 22.3858 77.6142 0 50 0C22.3858 0 0 22.3858 0 50C0 77.6142 22.3858 100 50 100Z" fill="#58B0E0"/>
<path fill-rule="evenodd" clip-rule="evenodd" d="M73.6037 32.3416L26.398 32.6247C26.398 32.6247 28.0938 58.7543 22.1602 66.9452H79.929C78.4403 64.7608 74.5034 64.0569 73.6037 32.3416Z" fill="#60350A"/>
<path fill-rule="evenodd" clip-rule="evenodd" d="M29.3447 73.7851L41.005 68.6281L59.6943 68.1426L71.7009 74.4485L63.0325 92.5958L50.7137 99.2107L37.971 92.1718L29.3447 73.7851Z" fill="#D5E1ED"/>
<path fill-rule="evenodd" clip-rule="evenodd" d="M40.0391 62.5892L60.9631 62.7251V77.2057L40.0391 77.0682V62.5892Z" fill="#F9DCA4"/>
<path opacity="0.11" fill-rule="evenodd" clip-rule="evenodd" d="M60.9662 62.7478V68.5407C60.9889 69.2026 60.9673 69.8654 60.9015 70.5245C60.804 71.2552 60.6343 71.9745 60.395 72.6717C53.3238 79.4112 41.9823 73.9339 40.1846 62.4241L60.9662 62.7478Z" fill="black"/>
<path fill-rule="evenodd" clip-rule="evenodd" d="M85.4326 85.277C80.7478 89.9829 75.1726 93.7085 69.0323 96.2361C62.892 98.7637 56.3096 100.043 49.6696 99.9987C43.0295 99.9545 36.4648 98.5881 30.3586 95.979C24.2524 93.37 18.7272 89.5707 14.1055 84.8029L16.0812 79.7899L30.811 73.12C36.0894 82.7964 41.8305 91.7673 50.7415 98.1282C58.8078 91.414 65.3418 83.0492 69.9034 73.5973L83.0814 79.832L85.4326 85.277Z" fill="#434955"/>
<path fill-rule="evenodd" clip-rule="evenodd" d="M30.9224 39.1312C26.1359 41.2186 30.2072 51.1216 33.2201 51.0779C31.9699 47.2043 31.1982 43.1922 30.9224 39.1312Z" fill="#F9DCA4"/>
<path fill-rule="evenodd" clip-rule="evenodd" d="M70.4001 39.1296C75.1898 41.2202 71.117 51.1215 68.104 51.0778C69.354 47.2037 70.1251 43.1911 70.4001 39.1296Z" fill="#F9DCA4"/>
<path fill-rule="evenodd" clip-rule="evenodd" d="M50.3466 14.0227C64.4599 14.0227 70.3742 24.0551 70.7367 35.6522C71.2334 51.5261 61.5538 70.3287 50.3482 70.3287C39.7333 70.3287 29.7883 50.882 30.3919 34.8464C30.8126 23.5956 36.5634 14.0227 50.3466 14.0227Z" fill="#FFE8BE"/>
<path fill-rule="evenodd" clip-rule="evenodd" d="M54.0436 40.4257C56.572 38.8811 59.5763 38.31 62.4951 38.8189H62.5032C70.843 39.8383 70.9725 42.4305 70.1618 43.0276C69.6191 43.476 69.1849 44.0414 68.8916 44.6814C68.7104 46.3709 68.1267 47.9923 67.1893 49.4095C66.5651 50.3874 65.7446 51.2248 64.7797 51.8688C63.8148 52.5128 62.7266 52.9493 61.5841 53.1506C61.3123 53.1943 61.034 53.2283 60.7492 53.2445C59.6358 53.3243 58.5194 53.1379 57.4924 52.7006C56.4653 52.2633 55.5572 51.5878 54.843 50.7299C53.8102 49.5173 53.0005 48.1313 52.4514 46.6361V46.6409C52.4514 46.6409 51.1618 43.9937 49.0986 46.4564C48.5445 48.0177 47.7111 49.4652 46.6391 50.7283C45.9248 51.5865 45.0164 52.2623 43.9891 52.6999C42.9618 53.1374 41.8451 53.3241 40.7313 53.2445C40.4516 53.227 40.1729 53.1957 39.8963 53.1506C38.7539 52.9492 37.6658 52.5127 36.7009 51.8687C35.736 51.2247 34.9154 50.3873 34.2912 49.4095C33.3542 47.9927 32.7704 46.3719 32.5889 44.683C32.3096 44.0408 31.8827 43.4737 31.3429 43.0276C30.5339 42.4289 30.6552 39.8351 38.9951 38.8156H38.9983C41.9293 38.3093 44.9444 38.8905 47.4773 40.45L47.4757 40.4483L47.4805 40.4516L47.8284 40.6635C48.7984 41.1595 49.8795 41.3979 50.9681 41.356C52.0567 41.314 53.1163 40.9931 54.0453 40.4241L54.0436 40.4257ZM46.4837 41.458C44.9799 40.5895 43.2879 40.0985 41.5527 40.0272C39.8175 39.9559 38.091 40.3064 36.5209 41.0487C34.0759 42.1587 33.33 42.9419 34.2782 46.1668C34.5351 47.0465 34.9235 47.8823 35.4303 48.6458C36.0023 49.5764 36.79 50.3557 37.7268 50.9176C38.6635 51.4795 39.7219 51.8075 40.8122 51.8739C41.7181 51.9363 42.6259 51.7822 43.4604 51.4243C44.2949 51.0664 45.0323 50.515 45.6116 49.8157C46.5709 48.6809 47.3165 47.3815 47.8122 45.9807C48.9109 43.1004 49.2071 42.9661 46.4854 41.458H46.4837ZM64.1974 40.7299C62.6451 40.1468 60.9801 39.926 59.3294 40.0844C57.6788 40.2429 56.0861 40.7763 54.6731 41.6441C52.1844 43.1182 52.6375 43.3642 53.7378 46.1587C54.2273 47.4933 54.9481 48.7313 55.8673 49.8157C56.4467 50.5152 57.1843 51.0667 58.0192 51.4247C58.854 51.7826 59.7621 51.9366 60.6683 51.8739C60.9014 51.8599 61.1336 51.834 61.3641 51.7963C62.3207 51.624 63.2311 51.2551 64.0377 50.7128C64.8443 50.1705 65.5296 49.4666 66.0502 48.6458C66.5285 47.9259 66.9012 47.1412 67.157 46.3157C68.2929 42.6749 67.2799 41.8642 64.199 40.7315L64.1974 40.7299Z" fill="#464449"/>
<path fill-rule="evenodd" clip-rule="evenodd" d="M28.9484 41.437C28.9484 40.4047 30.5407 40.0034 31.5342 46.1992C32.3365 43.6684 32.8553 41.0564 33.0811 38.4111C34.9614 38.7752 36.7672 43.0196 36.1993 46.7413C41.3223 45.484 54.489 37.539 58.7705 26.7995C69.7285 33.1118 69.6686 46.3691 69.6686 46.3691C69.6686 46.3691 70.2479 43.2947 70.5715 40.6798C70.6783 39.8092 71.0456 39.4937 71.8628 40.3351C77.7884 28.0632 68.4469 9.30425 50.6427 9.01299C26.196 8.61493 23.0859 35.0875 28.95 41.4387L28.9484 41.437Z" fill="#8A5C42"/>
<path fill-rule="evenodd" clip-rule="evenodd" d="M40.073 68.6588C42.6296 72.4686 46.2737 75.4208 50.531 77.1313L43.7219 87.0731L34.1475 71.2478L40.073 68.6588Z" fill="white"/>
<path fill-rule="evenodd" clip-rule="evenodd" d="M60.9741 68.6588C58.4174 72.4686 54.7734 75.4208 50.5161 77.1313L57.3268 87.0731L66.9595 71.4291L60.9741 68.6588Z" fill="white"/>
<path d="M50.5227 86.4101C51.2726 86.4101 51.8804 85.8022 51.8804 85.0524C51.8804 84.3026 51.2726 83.6947 50.5227 83.6947C49.7729 83.6947 49.165 84.3026 49.165 85.0524C49.165 85.8022 49.7729 86.4101 50.5227 86.4101Z" fill="#434955"/>
<path d="M50.5227 92.4441C51.2726 92.4441 51.8804 91.8362 51.8804 91.0864C51.8804 90.3366 51.2726 89.7287 50.5227 89.7287C49.7729 89.7287 49.165 90.3366 49.165 91.0864C49.165 91.8362 49.7729 92.4441 50.5227 92.4441Z" fill="#434955"/>
<path fill-rule="evenodd" clip-rule="evenodd" d="M67.9566 40.0276C70.8433 41.1798 70.7382 42.5859 70.1686 43.0066C69.6259 43.4551 69.1917 44.0204 68.8984 44.6604C68.7719 45.8296 68.4537 46.97 67.9566 48.0358V40.0276ZM33.217 47.2752C32.901 46.4337 32.6923 45.5557 32.5956 44.662C32.3165 44.0198 31.8896 43.4526 31.3497 43.0066C30.8044 42.6037 30.6814 41.2914 33.217 40.1684V47.2752Z" fill="#464449"/>
</g>
<defs>
<clipPath id="clip0_268_911">
<rect width="100" height="100" fill="white"/>
</clipPath>
</defs>
</svg>
