<svg width="100" height="66" viewBox="0 0 100 66" fill="none" xmlns="http://www.w3.org/2000/svg">
<path d="M92.5107 0.241394H7.48926C3.35293 0.241394 0 3.59432 0 7.73065V58.2695C0 62.4057 3.35293 65.7588 7.48926 65.7588H92.5107C96.6469 65.7588 100 62.4059 100 58.2695V7.73065C100 3.59432 96.6471 0.241394 92.5107 0.241394Z" fill="#41479B"/>
<path d="M99.8963 6.49258C99.3061 2.9459 96.225 0.241211 92.5107 0.241211H90.5621L58.6207 21.1684V0.241406H41.3793V21.1686L9.43789 0.241406H7.48926C3.775 0.241406 0.693945 2.9459 0.103711 6.49277L27.4041 24.3795H0V41.6209H27.4041L0.103711 59.5072C0.693945 63.0539 3.775 65.7586 7.48926 65.7586H9.43789L41.3793 44.8314V65.7586H58.6207V44.8314L90.5621 65.7586H92.5107C96.225 65.7586 99.3061 63.0541 99.8963 59.5072L72.5959 41.6205H100V24.3791H72.5959L99.8963 6.49258Z" fill="#F5F5F5"/>
<path d="M55.1725 0.241394H44.8275V27.8275H0V38.1724H44.8275V65.7586H55.1725V38.1724H100V27.8275H55.1725V0.241394Z" fill="#FF4B55"/>
<path d="M4.84258 65.2757L41.2846 41.6207H34.951L1.80176 63.1386C2.61289 64.0853 3.65527 64.8271 4.84258 65.2757Z" fill="#FF4B55"/>
<path d="M67.6539 41.6207H61.3203L96.6164 64.5318C97.6041 63.8832 98.4283 63.007 99.0162 61.9781L67.6539 41.6207Z" fill="#FF4B55"/>
<path d="M0.791016 4.38181L31.5977 24.3793H37.9313L3.02266 1.71912C2.08535 2.41677 1.31836 3.32888 0.791016 4.38181Z" fill="#FF4B55"/>
<path d="M64.9542 24.3793L98.1642 2.82166C97.344 1.8781 96.2935 1.1406 95.098 0.700562L58.6206 24.3793H64.9542Z" fill="#FF4B55"/>
</svg>
